<mxfile host="app.diagrams.net" modified="2023-04-17T10:40:02.037Z" agent="Mozilla/5.0 (Macintosh; Intel Mac OS X 10_15_7) AppleWebKit/537.36 (KHTML, like Gecko) Chrome/112.0.0.0 Safari/537.36" etag="9oXLEmoF5_CMg8cR4rGn" version="21.1.8" type="device">
  <diagram name="Page-1" id="gBAXO4DCNGabJMjPVJwB">
    <mxGraphModel dx="894" dy="1585" grid="1" gridSize="10" guides="1" tooltips="1" connect="1" arrows="1" fold="1" page="1" pageScale="1" pageWidth="850" pageHeight="1100" math="0" shadow="0">
      <root>
        <mxCell id="0" />
        <mxCell id="1" parent="0" />
        <mxCell id="9U6BasLpsRpmz0PQ2QJs-2" value="" style="group" parent="1" vertex="1" connectable="0">
          <mxGeometry x="330" width="421" height="455" as="geometry" />
        </mxCell>
        <mxCell id="BUvVmMQozZYyvZz72ATM-227" value="&lt;font size=&quot;1&quot; face=&quot;Times New Roman&quot; style=&quot;&quot;&gt;&lt;b style=&quot;font-size: 22px;&quot;&gt;(b)&lt;/b&gt;&lt;/font&gt;" style="text;html=1;align=center;verticalAlign=middle;resizable=0;points=[];autosize=1;strokeColor=none;fillColor=none;" parent="9U6BasLpsRpmz0PQ2QJs-2" vertex="1">
          <mxGeometry width="50" height="40" as="geometry" />
        </mxCell>
        <mxCell id="BUvVmMQozZYyvZz72ATM-76" value="hyp" style="ellipse;whiteSpace=wrap;html=1;aspect=fixed;" parent="9U6BasLpsRpmz0PQ2QJs-2" vertex="1">
          <mxGeometry x="281" y="45" width="40" height="40" as="geometry" />
        </mxCell>
        <mxCell id="BUvVmMQozZYyvZz72ATM-77" value="ftg" style="ellipse;whiteSpace=wrap;html=1;aspect=fixed;" parent="9U6BasLpsRpmz0PQ2QJs-2" vertex="1">
          <mxGeometry x="205.41000000000008" y="135" width="40" height="40" as="geometry" />
        </mxCell>
        <mxCell id="BUvVmMQozZYyvZz72ATM-78" value="rtr" style="ellipse;whiteSpace=wrap;html=1;aspect=fixed;" parent="9U6BasLpsRpmz0PQ2QJs-2" vertex="1">
          <mxGeometry x="165.40999999999997" y="65" width="40" height="40" as="geometry" />
        </mxCell>
        <mxCell id="BUvVmMQozZYyvZz72ATM-79" value="anh" style="ellipse;whiteSpace=wrap;html=1;aspect=fixed;" parent="9U6BasLpsRpmz0PQ2QJs-2" vertex="1">
          <mxGeometry x="191" y="215" width="40" height="40" as="geometry" />
        </mxCell>
        <mxCell id="BUvVmMQozZYyvZz72ATM-80" value="inc" style="ellipse;whiteSpace=wrap;html=1;aspect=fixed;" parent="9U6BasLpsRpmz0PQ2QJs-2" vertex="1">
          <mxGeometry x="341" y="145" width="40" height="40" as="geometry" />
        </mxCell>
        <mxCell id="BUvVmMQozZYyvZz72ATM-81" value="wghtg" style="ellipse;whiteSpace=wrap;html=1;aspect=fixed;" parent="9U6BasLpsRpmz0PQ2QJs-2" vertex="1">
          <mxGeometry x="381" y="195" width="40" height="40" as="geometry" />
        </mxCell>
        <mxCell id="BUvVmMQozZYyvZz72ATM-82" value="dcp" style="ellipse;whiteSpace=wrap;html=1;aspect=fixed;" parent="9U6BasLpsRpmz0PQ2QJs-2" vertex="1">
          <mxGeometry x="311" y="275" width="40" height="40" as="geometry" />
        </mxCell>
        <mxCell id="BUvVmMQozZYyvZz72ATM-83" value="wghtl" style="ellipse;whiteSpace=wrap;html=1;aspect=fixed;" parent="9U6BasLpsRpmz0PQ2QJs-2" vertex="1">
          <mxGeometry x="371" y="305" width="40" height="40" as="geometry" />
        </mxCell>
        <mxCell id="BUvVmMQozZYyvZz72ATM-84" value="lat" style="ellipse;whiteSpace=wrap;html=1;aspect=fixed;" parent="9U6BasLpsRpmz0PQ2QJs-2" vertex="1">
          <mxGeometry x="191" y="345" width="40" height="40" as="geometry" />
        </mxCell>
        <mxCell id="BUvVmMQozZYyvZz72ATM-85" value="ons" style="ellipse;whiteSpace=wrap;html=1;aspect=fixed;" parent="9U6BasLpsRpmz0PQ2QJs-2" vertex="1">
          <mxGeometry x="261" y="385" width="40" height="40" as="geometry" />
        </mxCell>
        <mxCell id="BUvVmMQozZYyvZz72ATM-86" value="mdd" style="ellipse;whiteSpace=wrap;html=1;aspect=fixed;" parent="9U6BasLpsRpmz0PQ2QJs-2" vertex="1">
          <mxGeometry x="161" y="415" width="40" height="40" as="geometry" />
        </mxCell>
        <mxCell id="BUvVmMQozZYyvZz72ATM-87" value="sad" style="ellipse;whiteSpace=wrap;html=1;aspect=fixed;" parent="9U6BasLpsRpmz0PQ2QJs-2" vertex="1">
          <mxGeometry x="125.41000000000008" y="255" width="40" height="40" as="geometry" />
        </mxCell>
        <mxCell id="BUvVmMQozZYyvZz72ATM-88" value="cnc" style="ellipse;whiteSpace=wrap;html=1;aspect=fixed;" parent="9U6BasLpsRpmz0PQ2QJs-2" vertex="1">
          <mxGeometry x="121" y="115" width="40" height="40" as="geometry" />
        </mxCell>
        <mxCell id="BUvVmMQozZYyvZz72ATM-89" value="glt" style="ellipse;whiteSpace=wrap;html=1;aspect=fixed;" parent="9U6BasLpsRpmz0PQ2QJs-2" vertex="1">
          <mxGeometry x="81" y="205" width="40" height="40" as="geometry" />
        </mxCell>
        <mxCell id="BUvVmMQozZYyvZz72ATM-90" value="agt" style="ellipse;whiteSpace=wrap;html=1;aspect=fixed;" parent="9U6BasLpsRpmz0PQ2QJs-2" vertex="1">
          <mxGeometry x="11" y="155" width="40" height="40" as="geometry" />
        </mxCell>
        <mxCell id="BUvVmMQozZYyvZz72ATM-91" value="scd" style="ellipse;whiteSpace=wrap;html=1;aspect=fixed;" parent="9U6BasLpsRpmz0PQ2QJs-2" vertex="1">
          <mxGeometry x="51" y="295" width="40" height="40" as="geometry" />
        </mxCell>
        <mxCell id="BUvVmMQozZYyvZz72ATM-92" value="" style="endArrow=classic;html=1;rounded=0;exitX=0;exitY=0;exitDx=0;exitDy=0;entryX=1;entryY=0.5;entryDx=0;entryDy=0;startArrow=classic;startFill=1;" parent="9U6BasLpsRpmz0PQ2QJs-2" source="BUvVmMQozZYyvZz72ATM-85" target="BUvVmMQozZYyvZz72ATM-84" edge="1">
          <mxGeometry width="50" height="50" relative="1" as="geometry">
            <mxPoint x="351" y="345" as="sourcePoint" />
            <mxPoint x="401" y="295" as="targetPoint" />
          </mxGeometry>
        </mxCell>
        <mxCell id="BUvVmMQozZYyvZz72ATM-93" value="" style="endArrow=classic;html=1;rounded=0;exitX=0.5;exitY=0;exitDx=0;exitDy=0;entryX=0;entryY=1;entryDx=0;entryDy=0;startArrow=classic;startFill=1;" parent="9U6BasLpsRpmz0PQ2QJs-2" source="BUvVmMQozZYyvZz72ATM-86" target="BUvVmMQozZYyvZz72ATM-84" edge="1">
          <mxGeometry width="50" height="50" relative="1" as="geometry">
            <mxPoint x="351" y="345" as="sourcePoint" />
            <mxPoint x="401" y="295" as="targetPoint" />
          </mxGeometry>
        </mxCell>
        <mxCell id="BUvVmMQozZYyvZz72ATM-94" value="" style="endArrow=classic;html=1;rounded=0;exitX=0;exitY=1;exitDx=0;exitDy=0;entryX=1;entryY=0.5;entryDx=0;entryDy=0;startArrow=classic;startFill=1;" parent="9U6BasLpsRpmz0PQ2QJs-2" source="BUvVmMQozZYyvZz72ATM-85" target="BUvVmMQozZYyvZz72ATM-86" edge="1">
          <mxGeometry width="50" height="50" relative="1" as="geometry">
            <mxPoint x="351" y="345" as="sourcePoint" />
            <mxPoint x="401" y="295" as="targetPoint" />
          </mxGeometry>
        </mxCell>
        <mxCell id="BUvVmMQozZYyvZz72ATM-96" value="" style="endArrow=classic;html=1;rounded=0;entryX=0;entryY=0.325;entryDx=0;entryDy=0;startArrow=classic;startFill=1;endFill=1;exitX=1;exitY=1;exitDx=0;exitDy=0;entryPerimeter=0;" parent="9U6BasLpsRpmz0PQ2QJs-2" source="BUvVmMQozZYyvZz72ATM-82" target="BUvVmMQozZYyvZz72ATM-83" edge="1">
          <mxGeometry width="50" height="50" relative="1" as="geometry">
            <mxPoint x="348" y="311" as="sourcePoint" />
            <mxPoint x="368" y="321" as="targetPoint" />
          </mxGeometry>
        </mxCell>
        <mxCell id="BUvVmMQozZYyvZz72ATM-97" value="" style="endArrow=classic;html=1;rounded=0;exitX=0.5;exitY=1;exitDx=0;exitDy=0;entryX=0.5;entryY=0;entryDx=0;entryDy=0;startArrow=classic;startFill=1;" parent="9U6BasLpsRpmz0PQ2QJs-2" source="BUvVmMQozZYyvZz72ATM-81" target="BUvVmMQozZYyvZz72ATM-83" edge="1">
          <mxGeometry width="50" height="50" relative="1" as="geometry">
            <mxPoint x="331" y="345" as="sourcePoint" />
            <mxPoint x="381" y="295" as="targetPoint" />
          </mxGeometry>
        </mxCell>
        <mxCell id="BUvVmMQozZYyvZz72ATM-100" value="" style="endArrow=classic;html=1;rounded=0;startArrow=classic;startFill=1;endFill=1;exitX=0.675;exitY=0.975;exitDx=0;exitDy=0;entryX=0;entryY=0;entryDx=0;entryDy=0;exitPerimeter=0;" parent="9U6BasLpsRpmz0PQ2QJs-2" edge="1">
          <mxGeometry width="50" height="50" relative="1" as="geometry">
            <mxPoint x="373" y="181" as="sourcePoint" />
            <mxPoint x="391.85786437626894" y="197.85786437626894" as="targetPoint" />
          </mxGeometry>
        </mxCell>
        <mxCell id="BUvVmMQozZYyvZz72ATM-101" value="" style="endArrow=none;html=1;rounded=0;startArrow=none;startFill=0;endFill=0;endSize=6;" parent="9U6BasLpsRpmz0PQ2QJs-2" edge="1">
          <mxGeometry width="50" height="50" relative="1" as="geometry">
            <mxPoint x="211" y="255" as="sourcePoint" />
            <mxPoint x="211" y="255" as="targetPoint" />
          </mxGeometry>
        </mxCell>
        <mxCell id="BUvVmMQozZYyvZz72ATM-103" value="" style="endArrow=none;html=1;rounded=0;startArrow=none;startFill=0;endFill=0;endSize=6;" parent="9U6BasLpsRpmz0PQ2QJs-2" edge="1">
          <mxGeometry width="50" height="50" relative="1" as="geometry">
            <mxPoint x="211" y="345" as="sourcePoint" />
            <mxPoint x="211" y="345" as="targetPoint" />
          </mxGeometry>
        </mxCell>
        <mxCell id="BUvVmMQozZYyvZz72ATM-107" value="" style="endArrow=none;html=1;rounded=0;exitX=1;exitY=0.5;exitDx=0;exitDy=0;entryX=0;entryY=1;entryDx=0;entryDy=0;startArrow=none;" parent="9U6BasLpsRpmz0PQ2QJs-2" target="BUvVmMQozZYyvZz72ATM-79" edge="1">
          <mxGeometry width="50" height="50" relative="1" as="geometry">
            <mxPoint x="196" y="250" as="sourcePoint" />
            <mxPoint x="381" y="265" as="targetPoint" />
          </mxGeometry>
        </mxCell>
        <mxCell id="BUvVmMQozZYyvZz72ATM-108" value="" style="endArrow=classic;html=1;rounded=0;entryX=0;entryY=1;entryDx=0;entryDy=0;exitX=1;exitY=0.5;exitDx=0;exitDy=0;startArrow=classic;startFill=1;endFill=1;" parent="9U6BasLpsRpmz0PQ2QJs-2" source="BUvVmMQozZYyvZz72ATM-87" target="BUvVmMQozZYyvZz72ATM-79" edge="1">
          <mxGeometry width="50" height="50" relative="1" as="geometry">
            <mxPoint x="171" y="265" as="sourcePoint" />
            <mxPoint x="190.87867965644023" y="252.12132034355977" as="targetPoint" />
          </mxGeometry>
        </mxCell>
        <mxCell id="BUvVmMQozZYyvZz72ATM-111" value="" style="endArrow=none;html=1;rounded=0;entryX=1;entryY=1;entryDx=0;entryDy=0;exitX=0;exitY=0;exitDx=0;exitDy=0;startArrow=none;" parent="9U6BasLpsRpmz0PQ2QJs-2" target="BUvVmMQozZYyvZz72ATM-88" edge="1">
          <mxGeometry width="50" height="50" relative="1" as="geometry">
            <mxPoint x="148.87867965644023" y="152.87867965644023" as="sourcePoint" />
            <mxPoint x="381" y="265" as="targetPoint" />
          </mxGeometry>
        </mxCell>
        <mxCell id="BUvVmMQozZYyvZz72ATM-112" value="" style="endArrow=none;html=1;rounded=0;entryX=1;entryY=1;entryDx=0;entryDy=0;exitX=0;exitY=0;exitDx=0;exitDy=0;" parent="9U6BasLpsRpmz0PQ2QJs-2" source="BUvVmMQozZYyvZz72ATM-79" edge="1">
          <mxGeometry width="50" height="50" relative="1" as="geometry">
            <mxPoint x="197" y="221" as="sourcePoint" />
            <mxPoint x="200.12132034355977" y="218.12132034355977" as="targetPoint" />
          </mxGeometry>
        </mxCell>
        <mxCell id="BUvVmMQozZYyvZz72ATM-116" value="" style="endArrow=classic;html=1;rounded=0;entryX=0.34;entryY=0.975;entryDx=0;entryDy=0;exitX=0.5;exitY=0;exitDx=0;exitDy=0;entryPerimeter=0;startArrow=classic;startFill=1;" parent="9U6BasLpsRpmz0PQ2QJs-2" source="BUvVmMQozZYyvZz72ATM-79" target="BUvVmMQozZYyvZz72ATM-77" edge="1">
          <mxGeometry width="50" height="50" relative="1" as="geometry">
            <mxPoint x="331" y="315" as="sourcePoint" />
            <mxPoint x="381" y="265" as="targetPoint" />
          </mxGeometry>
        </mxCell>
        <mxCell id="BUvVmMQozZYyvZz72ATM-117" value="" style="endArrow=classic;html=1;rounded=0;exitX=0;exitY=1;exitDx=0;exitDy=0;entryX=1;entryY=0;entryDx=0;entryDy=0;startArrow=classic;startFill=1;" parent="9U6BasLpsRpmz0PQ2QJs-2" source="BUvVmMQozZYyvZz72ATM-76" target="BUvVmMQozZYyvZz72ATM-77" edge="1">
          <mxGeometry width="50" height="50" relative="1" as="geometry">
            <mxPoint x="331" y="315" as="sourcePoint" />
            <mxPoint x="381" y="265" as="targetPoint" />
          </mxGeometry>
        </mxCell>
        <mxCell id="BUvVmMQozZYyvZz72ATM-118" value="" style="endArrow=classic;html=1;rounded=0;exitX=0.975;exitY=0.675;exitDx=0;exitDy=0;exitPerimeter=0;entryX=0;entryY=0.5;entryDx=0;entryDy=0;endFill=1;startArrow=classic;startFill=1;" parent="9U6BasLpsRpmz0PQ2QJs-2" source="BUvVmMQozZYyvZz72ATM-88" target="BUvVmMQozZYyvZz72ATM-77" edge="1">
          <mxGeometry width="50" height="50" relative="1" as="geometry">
            <mxPoint x="331" y="315" as="sourcePoint" />
            <mxPoint x="381" y="265" as="targetPoint" />
          </mxGeometry>
        </mxCell>
        <mxCell id="BUvVmMQozZYyvZz72ATM-119" value="" style="endArrow=classic;html=1;rounded=0;entryX=0;entryY=0;entryDx=0;entryDy=0;exitX=1;exitY=1;exitDx=0;exitDy=0;startArrow=classic;startFill=1;" parent="9U6BasLpsRpmz0PQ2QJs-2" source="BUvVmMQozZYyvZz72ATM-78" edge="1">
          <mxGeometry width="50" height="50" relative="1" as="geometry">
            <mxPoint x="199" y="110" as="sourcePoint" />
            <mxPoint x="219.26786437626902" y="135.85786437626894" as="targetPoint" />
          </mxGeometry>
        </mxCell>
        <mxCell id="BUvVmMQozZYyvZz72ATM-120" value="" style="endArrow=classic;html=1;rounded=0;exitX=0;exitY=1;exitDx=0;exitDy=0;entryX=1;entryY=0.5;entryDx=0;entryDy=0;startArrow=classic;startFill=1;" parent="9U6BasLpsRpmz0PQ2QJs-2" source="BUvVmMQozZYyvZz72ATM-87" target="BUvVmMQozZYyvZz72ATM-91" edge="1">
          <mxGeometry width="50" height="50" relative="1" as="geometry">
            <mxPoint x="331" y="295" as="sourcePoint" />
            <mxPoint x="381" y="245" as="targetPoint" />
          </mxGeometry>
        </mxCell>
        <mxCell id="BUvVmMQozZYyvZz72ATM-121" value="" style="endArrow=none;html=1;rounded=0;entryX=1;entryY=1;entryDx=0;entryDy=0;exitX=0;exitY=0;exitDx=0;exitDy=0;startArrow=none;" parent="9U6BasLpsRpmz0PQ2QJs-2" target="BUvVmMQozZYyvZz72ATM-89" edge="1">
          <mxGeometry width="50" height="50" relative="1" as="geometry">
            <mxPoint x="112.87867965644023" y="240.87867965644023" as="sourcePoint" />
            <mxPoint x="381" y="245" as="targetPoint" />
          </mxGeometry>
        </mxCell>
        <mxCell id="BUvVmMQozZYyvZz72ATM-122" value="" style="endArrow=none;html=1;rounded=0;entryX=1;entryY=1;entryDx=0;entryDy=0;exitX=0;exitY=0;exitDx=0;exitDy=0;" parent="9U6BasLpsRpmz0PQ2QJs-2" source="BUvVmMQozZYyvZz72ATM-87" edge="1">
          <mxGeometry width="50" height="50" relative="1" as="geometry">
            <mxPoint x="131" y="261" as="sourcePoint" />
            <mxPoint x="130.53132034355963" y="260.1213203435598" as="targetPoint" />
          </mxGeometry>
        </mxCell>
        <mxCell id="BUvVmMQozZYyvZz72ATM-124" value="" style="endArrow=classic;html=1;rounded=0;entryX=1;entryY=1;entryDx=0;entryDy=0;exitX=0;exitY=0;exitDx=0;exitDy=0;startArrow=classic;startFill=1;endFill=1;" parent="9U6BasLpsRpmz0PQ2QJs-2" source="BUvVmMQozZYyvZz72ATM-87" target="BUvVmMQozZYyvZz72ATM-89" edge="1">
          <mxGeometry width="50" height="50" relative="1" as="geometry">
            <mxPoint x="126.28867965644008" y="255.87867965644023" as="sourcePoint" />
            <mxPoint x="117.12132034355977" y="245.12132034355977" as="targetPoint" />
          </mxGeometry>
        </mxCell>
        <mxCell id="BUvVmMQozZYyvZz72ATM-126" value="" style="endArrow=none;html=1;rounded=0;exitX=0.5;exitY=0;exitDx=0;exitDy=0;entryX=0;entryY=1;entryDx=0;entryDy=0;startArrow=none;" parent="9U6BasLpsRpmz0PQ2QJs-2" target="BUvVmMQozZYyvZz72ATM-88" edge="1">
          <mxGeometry width="50" height="50" relative="1" as="geometry">
            <mxPoint x="128.40999999999985" y="151" as="sourcePoint" />
            <mxPoint x="381" y="245" as="targetPoint" />
          </mxGeometry>
        </mxCell>
        <mxCell id="BUvVmMQozZYyvZz72ATM-129" value="" style="endArrow=none;html=1;rounded=0;exitX=0.5;exitY=0;exitDx=0;exitDy=0;entryX=0;entryY=1;entryDx=0;entryDy=0;" parent="9U6BasLpsRpmz0PQ2QJs-2" source="BUvVmMQozZYyvZz72ATM-89" edge="1">
          <mxGeometry width="50" height="50" relative="1" as="geometry">
            <mxPoint x="101" y="205" as="sourcePoint" />
            <mxPoint x="101.87867965644023" y="204.12132034355977" as="targetPoint" />
          </mxGeometry>
        </mxCell>
        <mxCell id="BUvVmMQozZYyvZz72ATM-131" value="" style="endArrow=classic;html=1;rounded=0;entryX=0.5;entryY=0;entryDx=0;entryDy=0;startArrow=classic;startFill=1;" parent="9U6BasLpsRpmz0PQ2QJs-2" edge="1">
          <mxGeometry width="50" height="50" relative="1" as="geometry">
            <mxPoint x="92" y="244" as="sourcePoint" />
            <mxPoint x="74" y="295" as="targetPoint" />
          </mxGeometry>
        </mxCell>
        <mxCell id="BUvVmMQozZYyvZz72ATM-132" value="" style="endArrow=classic;html=1;rounded=0;entryX=1;entryY=1;entryDx=0;entryDy=0;exitX=0;exitY=0;exitDx=0;exitDy=0;startArrow=classic;startFill=1;" parent="9U6BasLpsRpmz0PQ2QJs-2" source="BUvVmMQozZYyvZz72ATM-89" target="BUvVmMQozZYyvZz72ATM-90" edge="1">
          <mxGeometry width="50" height="50" relative="1" as="geometry">
            <mxPoint x="331" y="295" as="sourcePoint" />
            <mxPoint x="381" y="245" as="targetPoint" />
          </mxGeometry>
        </mxCell>
        <mxCell id="BUvVmMQozZYyvZz72ATM-133" value="" style="endArrow=classic;html=1;rounded=0;exitX=-0.025;exitY=0.7;exitDx=0;exitDy=0;exitPerimeter=0;entryX=1;entryY=0;entryDx=0;entryDy=0;startArrow=classic;startFill=1;" parent="9U6BasLpsRpmz0PQ2QJs-2" target="BUvVmMQozZYyvZz72ATM-90" edge="1">
          <mxGeometry width="50" height="50" relative="1" as="geometry">
            <mxPoint x="121" y="140" as="sourcePoint" />
            <mxPoint x="51" y="165" as="targetPoint" />
          </mxGeometry>
        </mxCell>
        <mxCell id="BUvVmMQozZYyvZz72ATM-135" value="" style="endArrow=classic;html=1;rounded=0;entryX=0;entryY=1;entryDx=0;entryDy=0;exitX=1;exitY=0;exitDx=0;exitDy=0;startArrow=classic;startFill=1;" parent="9U6BasLpsRpmz0PQ2QJs-2" source="BUvVmMQozZYyvZz72ATM-88" target="BUvVmMQozZYyvZz72ATM-78" edge="1">
          <mxGeometry width="50" height="50" relative="1" as="geometry">
            <mxPoint x="331" y="295" as="sourcePoint" />
            <mxPoint x="381" y="245" as="targetPoint" />
          </mxGeometry>
        </mxCell>
        <mxCell id="98Zc2acmLnp5LVriP_AH-1" value="" style="group" parent="1" vertex="1" connectable="0">
          <mxGeometry x="641" y="-440" width="409.81900452488685" height="440" as="geometry" />
        </mxCell>
        <mxCell id="BUvVmMQozZYyvZz72ATM-225" value="&lt;font size=&quot;1&quot; face=&quot;Times New Roman&quot; style=&quot;&quot;&gt;&lt;b style=&quot;font-size: 22px;&quot;&gt;(a)&lt;/b&gt;&lt;/font&gt;" style="text;html=1;align=center;verticalAlign=middle;resizable=0;points=[];autosize=1;strokeColor=none;fillColor=none;" parent="98Zc2acmLnp5LVriP_AH-1" vertex="1">
          <mxGeometry width="50" height="40" as="geometry" />
        </mxCell>
        <mxCell id="BUvVmMQozZYyvZz72ATM-2" value="hyp" style="ellipse;whiteSpace=wrap;html=1;aspect=fixed;" parent="98Zc2acmLnp5LVriP_AH-1" vertex="1">
          <mxGeometry x="270" y="31.855203619909503" width="39.81900452488688" height="39.81900452488688" as="geometry" />
        </mxCell>
        <mxCell id="BUvVmMQozZYyvZz72ATM-3" value="ftg" style="ellipse;whiteSpace=wrap;html=1;aspect=fixed;" parent="98Zc2acmLnp5LVriP_AH-1" vertex="1">
          <mxGeometry x="194.41000000000008" y="121.44796380090497" width="39.81900452488688" height="39.81900452488688" as="geometry" />
        </mxCell>
        <mxCell id="BUvVmMQozZYyvZz72ATM-4" value="rtr" style="ellipse;whiteSpace=wrap;html=1;aspect=fixed;" parent="98Zc2acmLnp5LVriP_AH-1" vertex="1">
          <mxGeometry x="154.40999999999997" y="51.76470588235294" width="39.81900452488688" height="39.81900452488688" as="geometry" />
        </mxCell>
        <mxCell id="BUvVmMQozZYyvZz72ATM-5" value="anh" style="ellipse;whiteSpace=wrap;html=1;aspect=fixed;" parent="98Zc2acmLnp5LVriP_AH-1" vertex="1">
          <mxGeometry x="180" y="201.08597285067873" width="39.81900452488688" height="39.81900452488688" as="geometry" />
        </mxCell>
        <mxCell id="BUvVmMQozZYyvZz72ATM-6" value="inc" style="ellipse;whiteSpace=wrap;html=1;aspect=fixed;" parent="98Zc2acmLnp5LVriP_AH-1" vertex="1">
          <mxGeometry x="330" y="131.40271493212668" width="39.81900452488688" height="39.81900452488688" as="geometry" />
        </mxCell>
        <mxCell id="BUvVmMQozZYyvZz72ATM-7" value="wghtg" style="ellipse;whiteSpace=wrap;html=1;aspect=fixed;" parent="98Zc2acmLnp5LVriP_AH-1" vertex="1">
          <mxGeometry x="370" y="181.1764705882353" width="39.81900452488688" height="39.81900452488688" as="geometry" />
        </mxCell>
        <mxCell id="BUvVmMQozZYyvZz72ATM-8" value="dcp" style="ellipse;whiteSpace=wrap;html=1;aspect=fixed;" parent="98Zc2acmLnp5LVriP_AH-1" vertex="1">
          <mxGeometry x="300" y="260.81447963800906" width="39.81900452488688" height="39.81900452488688" as="geometry" />
        </mxCell>
        <mxCell id="BUvVmMQozZYyvZz72ATM-9" value="wghtl" style="ellipse;whiteSpace=wrap;html=1;aspect=fixed;" parent="98Zc2acmLnp5LVriP_AH-1" vertex="1">
          <mxGeometry x="361" y="290.6787330316742" width="39.81900452488688" height="39.81900452488688" as="geometry" />
        </mxCell>
        <mxCell id="BUvVmMQozZYyvZz72ATM-10" value="lat" style="ellipse;whiteSpace=wrap;html=1;aspect=fixed;" parent="98Zc2acmLnp5LVriP_AH-1" vertex="1">
          <mxGeometry x="180" y="330.4977375565611" width="39.81900452488688" height="39.81900452488688" as="geometry" />
        </mxCell>
        <mxCell id="BUvVmMQozZYyvZz72ATM-11" value="ons" style="ellipse;whiteSpace=wrap;html=1;aspect=fixed;" parent="98Zc2acmLnp5LVriP_AH-1" vertex="1">
          <mxGeometry x="250" y="370.31674208144796" width="39.81900452488688" height="39.81900452488688" as="geometry" />
        </mxCell>
        <mxCell id="BUvVmMQozZYyvZz72ATM-12" value="mdd" style="ellipse;whiteSpace=wrap;html=1;aspect=fixed;" parent="98Zc2acmLnp5LVriP_AH-1" vertex="1">
          <mxGeometry x="150" y="400.18099547511315" width="39.81900452488688" height="39.81900452488688" as="geometry" />
        </mxCell>
        <mxCell id="BUvVmMQozZYyvZz72ATM-13" value="sad" style="ellipse;whiteSpace=wrap;html=1;aspect=fixed;" parent="98Zc2acmLnp5LVriP_AH-1" vertex="1">
          <mxGeometry x="114.41000000000008" y="240.9049773755656" width="39.81900452488688" height="39.81900452488688" as="geometry" />
        </mxCell>
        <mxCell id="BUvVmMQozZYyvZz72ATM-14" value="cnc" style="ellipse;whiteSpace=wrap;html=1;aspect=fixed;" parent="98Zc2acmLnp5LVriP_AH-1" vertex="1">
          <mxGeometry x="110" y="101.53846153846155" width="39.81900452488688" height="39.81900452488688" as="geometry" />
        </mxCell>
        <mxCell id="BUvVmMQozZYyvZz72ATM-15" value="glt" style="ellipse;whiteSpace=wrap;html=1;aspect=fixed;" parent="98Zc2acmLnp5LVriP_AH-1" vertex="1">
          <mxGeometry x="70" y="191.13122171945702" width="39.81900452488688" height="39.81900452488688" as="geometry" />
        </mxCell>
        <mxCell id="BUvVmMQozZYyvZz72ATM-16" value="agt" style="ellipse;whiteSpace=wrap;html=1;aspect=fixed;" parent="98Zc2acmLnp5LVriP_AH-1" vertex="1">
          <mxGeometry y="141.35746606334843" width="39.81900452488688" height="39.81900452488688" as="geometry" />
        </mxCell>
        <mxCell id="BUvVmMQozZYyvZz72ATM-17" value="scd" style="ellipse;whiteSpace=wrap;html=1;aspect=fixed;" parent="98Zc2acmLnp5LVriP_AH-1" vertex="1">
          <mxGeometry x="40" y="280.7239819004525" width="39.81900452488688" height="39.81900452488688" as="geometry" />
        </mxCell>
        <mxCell id="BUvVmMQozZYyvZz72ATM-18" value="" style="endArrow=classic;html=1;rounded=0;exitX=0;exitY=0;exitDx=0;exitDy=0;entryX=1;entryY=0.5;entryDx=0;entryDy=0;endFill=1;startArrow=none;startFill=0;" parent="98Zc2acmLnp5LVriP_AH-1" source="BUvVmMQozZYyvZz72ATM-11" target="BUvVmMQozZYyvZz72ATM-10" edge="1">
          <mxGeometry width="50" height="50" relative="1" as="geometry">
            <mxPoint x="340" y="330.4977375565611" as="sourcePoint" />
            <mxPoint x="390" y="280.7239819004525" as="targetPoint" />
          </mxGeometry>
        </mxCell>
        <mxCell id="BUvVmMQozZYyvZz72ATM-19" value="" style="endArrow=oval;html=1;rounded=0;endFill=0;startArrow=oval;startFill=0;" parent="98Zc2acmLnp5LVriP_AH-1" edge="1">
          <mxGeometry width="50" height="50" relative="1" as="geometry">
            <mxPoint x="169" y="397" as="sourcePoint" />
            <mxPoint x="184" y="367" as="targetPoint" />
          </mxGeometry>
        </mxCell>
        <mxCell id="BUvVmMQozZYyvZz72ATM-20" value="" style="endArrow=classic;html=1;rounded=0;exitX=0;exitY=1;exitDx=0;exitDy=0;entryX=1;entryY=0.5;entryDx=0;entryDy=0;" parent="98Zc2acmLnp5LVriP_AH-1" source="BUvVmMQozZYyvZz72ATM-11" target="BUvVmMQozZYyvZz72ATM-12" edge="1">
          <mxGeometry width="50" height="50" relative="1" as="geometry">
            <mxPoint x="340" y="330.4977375565611" as="sourcePoint" />
            <mxPoint x="390" y="280.7239819004525" as="targetPoint" />
          </mxGeometry>
        </mxCell>
        <mxCell id="BUvVmMQozZYyvZz72ATM-21" value="" style="endArrow=none;html=1;rounded=0;entryX=0.715;entryY=0.925;entryDx=0;entryDy=0;exitX=0.5;exitY=0;exitDx=0;exitDy=0;entryPerimeter=0;endFill=0;" parent="98Zc2acmLnp5LVriP_AH-1" source="BUvVmMQozZYyvZz72ATM-11" target="BUvVmMQozZYyvZz72ATM-3" edge="1">
          <mxGeometry width="50" height="50" relative="1" as="geometry">
            <mxPoint x="340" y="330.4977375565611" as="sourcePoint" />
            <mxPoint x="390" y="280.7239819004525" as="targetPoint" />
          </mxGeometry>
        </mxCell>
        <mxCell id="BUvVmMQozZYyvZz72ATM-24" value="" style="endArrow=oval;html=1;rounded=0;endFill=0;startArrow=oval;startFill=0;exitX=0.5;exitY=1;exitDx=0;exitDy=0;" parent="98Zc2acmLnp5LVriP_AH-1" edge="1">
          <mxGeometry width="50" height="50" relative="1" as="geometry">
            <mxPoint x="389.90950226244354" y="223.9954751131221" as="sourcePoint" />
            <mxPoint x="380" y="287" as="targetPoint" />
          </mxGeometry>
        </mxCell>
        <mxCell id="BUvVmMQozZYyvZz72ATM-25" value="" style="endArrow=oval;html=1;rounded=0;startArrow=oval;startFill=0;endFill=0;entryX=-0.025;entryY=0.711;entryDx=0;entryDy=0;entryPerimeter=0;" parent="98Zc2acmLnp5LVriP_AH-1" target="BUvVmMQozZYyvZz72ATM-9" edge="1">
          <mxGeometry width="50" height="50" relative="1" as="geometry">
            <mxPoint x="222" y="343" as="sourcePoint" />
            <mxPoint x="352" y="320" as="targetPoint" />
          </mxGeometry>
        </mxCell>
        <mxCell id="BUvVmMQozZYyvZz72ATM-26" value="" style="endArrow=oval;html=1;rounded=0;exitX=0;exitY=0.5;exitDx=0;exitDy=0;endFill=0;startArrow=oval;startFill=0;" parent="98Zc2acmLnp5LVriP_AH-1" edge="1">
          <mxGeometry width="50" height="50" relative="1" as="geometry">
            <mxPoint x="297.00000000000387" y="276.7239819004524" as="sourcePoint" />
            <mxPoint x="217" y="236" as="targetPoint" />
          </mxGeometry>
        </mxCell>
        <mxCell id="BUvVmMQozZYyvZz72ATM-28" value="" style="endArrow=none;html=1;rounded=0;startArrow=none;startFill=0;endFill=0;exitX=0.675;exitY=0.975;exitDx=0;exitDy=0;entryX=0;entryY=0;entryDx=0;entryDy=0;exitPerimeter=0;" parent="98Zc2acmLnp5LVriP_AH-1" edge="1">
          <mxGeometry width="50" height="50" relative="1" as="geometry">
            <mxPoint x="362" y="167.2398190045249" as="sourcePoint" />
            <mxPoint x="380.85786437626894" y="184.02140345148945" as="targetPoint" />
          </mxGeometry>
        </mxCell>
        <mxCell id="BUvVmMQozZYyvZz72ATM-30" value="" style="endArrow=none;html=1;rounded=0;startArrow=none;startFill=0;endFill=0;endSize=6;" parent="98Zc2acmLnp5LVriP_AH-1" edge="1">
          <mxGeometry width="50" height="50" relative="1" as="geometry">
            <mxPoint x="200" y="240.9049773755656" as="sourcePoint" />
            <mxPoint x="200" y="240.9049773755656" as="targetPoint" />
          </mxGeometry>
        </mxCell>
        <mxCell id="BUvVmMQozZYyvZz72ATM-38" value="" style="endArrow=none;html=1;rounded=0;startArrow=none;startFill=0;endFill=0;endSize=6;" parent="98Zc2acmLnp5LVriP_AH-1" edge="1">
          <mxGeometry width="50" height="50" relative="1" as="geometry">
            <mxPoint x="200" y="330.4977375565611" as="sourcePoint" />
            <mxPoint x="200" y="330.4977375565611" as="targetPoint" />
          </mxGeometry>
        </mxCell>
        <mxCell id="BUvVmMQozZYyvZz72ATM-39" value="" style="ellipse;whiteSpace=wrap;html=1;" parent="98Zc2acmLnp5LVriP_AH-1" vertex="1">
          <mxGeometry x="362" y="166.2443438914027" width="6" height="5.972850678733032" as="geometry" />
        </mxCell>
        <mxCell id="BUvVmMQozZYyvZz72ATM-44" value="" style="ellipse;whiteSpace=wrap;html=1;" parent="98Zc2acmLnp5LVriP_AH-1" vertex="1">
          <mxGeometry x="375" y="178.19004524886878" width="6" height="5.972850678733032" as="geometry" />
        </mxCell>
        <mxCell id="BUvVmMQozZYyvZz72ATM-45" value="" style="endArrow=none;html=1;rounded=0;exitX=1;exitY=0.5;exitDx=0;exitDy=0;entryX=0;entryY=1;entryDx=0;entryDy=0;startArrow=none;" parent="98Zc2acmLnp5LVriP_AH-1" target="BUvVmMQozZYyvZz72ATM-5" edge="1">
          <mxGeometry width="50" height="50" relative="1" as="geometry">
            <mxPoint x="185" y="235.92760180995475" as="sourcePoint" />
            <mxPoint x="370" y="250.85972850678735" as="targetPoint" />
          </mxGeometry>
        </mxCell>
        <mxCell id="BUvVmMQozZYyvZz72ATM-47" value="" style="endArrow=oval;html=1;rounded=0;entryX=0;entryY=1;entryDx=0;entryDy=0;endFill=0;startArrow=oval;startFill=0;" parent="98Zc2acmLnp5LVriP_AH-1" edge="1">
          <mxGeometry width="50" height="50" relative="1" as="geometry">
            <mxPoint x="155" y="250" as="sourcePoint" />
            <mxPoint x="180.83135820262373" y="235.0736191729419" as="targetPoint" />
          </mxGeometry>
        </mxCell>
        <mxCell id="BUvVmMQozZYyvZz72ATM-50" value="" style="endArrow=none;html=1;rounded=0;entryX=1;entryY=1;entryDx=0;entryDy=0;exitX=0;exitY=0;exitDx=0;exitDy=0;startArrow=none;" parent="98Zc2acmLnp5LVriP_AH-1" target="BUvVmMQozZYyvZz72ATM-14" edge="1">
          <mxGeometry width="50" height="50" relative="1" as="geometry">
            <mxPoint x="137.87867965644045" y="139.2457444543751" as="sourcePoint" />
            <mxPoint x="370" y="250.85972850678735" as="targetPoint" />
          </mxGeometry>
        </mxCell>
        <mxCell id="BUvVmMQozZYyvZz72ATM-52" value="" style="endArrow=none;html=1;rounded=0;entryX=1;entryY=1;entryDx=0;entryDy=0;exitX=0;exitY=0;exitDx=0;exitDy=0;" parent="98Zc2acmLnp5LVriP_AH-1" source="BUvVmMQozZYyvZz72ATM-5" target="BUvVmMQozZYyvZz72ATM-51" edge="1">
          <mxGeometry width="50" height="50" relative="1" as="geometry">
            <mxPoint x="186" y="207.05882352941177" as="sourcePoint" />
            <mxPoint x="144" y="135.3846153846154" as="targetPoint" />
          </mxGeometry>
        </mxCell>
        <mxCell id="BUvVmMQozZYyvZz72ATM-51" value="" style="ellipse;whiteSpace=wrap;html=1;" parent="98Zc2acmLnp5LVriP_AH-1" vertex="1">
          <mxGeometry x="184" y="199.0950226244344" width="6" height="5.972850678733032" as="geometry" />
        </mxCell>
        <mxCell id="BUvVmMQozZYyvZz72ATM-54" value="" style="endArrow=none;html=1;rounded=0;entryX=1;entryY=1;entryDx=0;entryDy=0;exitX=0;exitY=0;exitDx=0;exitDy=0;startArrow=none;" parent="98Zc2acmLnp5LVriP_AH-1" source="BUvVmMQozZYyvZz72ATM-51" target="BUvVmMQozZYyvZz72ATM-14" edge="1">
          <mxGeometry width="50" height="50" relative="1" as="geometry">
            <mxPoint x="185" y="200.09049773755657" as="sourcePoint" />
            <mxPoint x="142.12132034355955" y="143.4691876723217" as="targetPoint" />
          </mxGeometry>
        </mxCell>
        <mxCell id="BUvVmMQozZYyvZz72ATM-55" value="" style="endArrow=classic;html=1;rounded=0;entryX=0.34;entryY=0.975;entryDx=0;entryDy=0;exitX=0.5;exitY=0;exitDx=0;exitDy=0;entryPerimeter=0;" parent="98Zc2acmLnp5LVriP_AH-1" source="BUvVmMQozZYyvZz72ATM-5" target="BUvVmMQozZYyvZz72ATM-3" edge="1">
          <mxGeometry width="50" height="50" relative="1" as="geometry">
            <mxPoint x="320" y="300.6334841628959" as="sourcePoint" />
            <mxPoint x="370" y="250.85972850678735" as="targetPoint" />
          </mxGeometry>
        </mxCell>
        <mxCell id="BUvVmMQozZYyvZz72ATM-56" value="" style="endArrow=classic;html=1;rounded=0;exitX=0;exitY=1;exitDx=0;exitDy=0;entryX=1;entryY=0;entryDx=0;entryDy=0;" parent="98Zc2acmLnp5LVriP_AH-1" source="BUvVmMQozZYyvZz72ATM-2" target="BUvVmMQozZYyvZz72ATM-3" edge="1">
          <mxGeometry width="50" height="50" relative="1" as="geometry">
            <mxPoint x="320" y="300.6334841628959" as="sourcePoint" />
            <mxPoint x="370" y="250.85972850678735" as="targetPoint" />
          </mxGeometry>
        </mxCell>
        <mxCell id="BUvVmMQozZYyvZz72ATM-57" value="" style="endArrow=oval;html=1;rounded=0;endFill=0;startArrow=oval;startFill=0;" parent="98Zc2acmLnp5LVriP_AH-1" edge="1">
          <mxGeometry width="50" height="50" relative="1" as="geometry">
            <mxPoint x="153" y="122" as="sourcePoint" />
            <mxPoint x="193" y="133" as="targetPoint" />
          </mxGeometry>
        </mxCell>
        <mxCell id="BUvVmMQozZYyvZz72ATM-58" value="" style="endArrow=classic;html=1;rounded=0;entryX=0;entryY=0;entryDx=0;entryDy=0;exitX=1;exitY=1;exitDx=0;exitDy=0;startArrow=none;startFill=0;endFill=1;" parent="98Zc2acmLnp5LVriP_AH-1" source="BUvVmMQozZYyvZz72ATM-4" edge="1">
          <mxGeometry width="50" height="50" relative="1" as="geometry">
            <mxPoint x="188" y="96.56108597285068" as="sourcePoint" />
            <mxPoint x="208.26786437626902" y="122.30194643791478" as="targetPoint" />
          </mxGeometry>
        </mxCell>
        <mxCell id="BUvVmMQozZYyvZz72ATM-59" value="" style="endArrow=classic;html=1;rounded=0;exitX=0;exitY=1;exitDx=0;exitDy=0;entryX=1;entryY=0.5;entryDx=0;entryDy=0;" parent="98Zc2acmLnp5LVriP_AH-1" source="BUvVmMQozZYyvZz72ATM-13" target="BUvVmMQozZYyvZz72ATM-17" edge="1">
          <mxGeometry width="50" height="50" relative="1" as="geometry">
            <mxPoint x="320" y="280.7239819004525" as="sourcePoint" />
            <mxPoint x="370" y="230.9502262443439" as="targetPoint" />
          </mxGeometry>
        </mxCell>
        <mxCell id="BUvVmMQozZYyvZz72ATM-60" value="" style="endArrow=none;html=1;rounded=0;entryX=1;entryY=1;entryDx=0;entryDy=0;exitX=0;exitY=0;exitDx=0;exitDy=0;startArrow=none;" parent="98Zc2acmLnp5LVriP_AH-1" target="BUvVmMQozZYyvZz72ATM-15" edge="1">
          <mxGeometry width="50" height="50" relative="1" as="geometry">
            <mxPoint x="101.87867965644045" y="226.84755440912625" as="sourcePoint" />
            <mxPoint x="370" y="230.9502262443439" as="targetPoint" />
          </mxGeometry>
        </mxCell>
        <mxCell id="BUvVmMQozZYyvZz72ATM-62" value="" style="endArrow=none;html=1;rounded=0;entryX=1;entryY=1;entryDx=0;entryDy=0;exitX=0;exitY=0;exitDx=0;exitDy=0;" parent="98Zc2acmLnp5LVriP_AH-1" source="BUvVmMQozZYyvZz72ATM-13" edge="1">
          <mxGeometry width="50" height="50" relative="1" as="geometry">
            <mxPoint x="120" y="246.87782805429865" as="sourcePoint" />
            <mxPoint x="119.5313203435594" y="246.00312432390544" as="targetPoint" />
          </mxGeometry>
        </mxCell>
        <mxCell id="BUvVmMQozZYyvZz72ATM-64" value="" style="endArrow=oval;html=1;rounded=0;startArrow=oval;endFill=0;startFill=0;" parent="98Zc2acmLnp5LVriP_AH-1" edge="1">
          <mxGeometry width="50" height="50" relative="1" as="geometry">
            <mxPoint x="123" y="241" as="sourcePoint" />
            <mxPoint x="109" y="224" as="targetPoint" />
          </mxGeometry>
        </mxCell>
        <mxCell id="BUvVmMQozZYyvZz72ATM-65" value="" style="endArrow=none;html=1;rounded=0;exitX=0.5;exitY=0;exitDx=0;exitDy=0;entryX=0;entryY=1;entryDx=0;entryDy=0;startArrow=none;" parent="98Zc2acmLnp5LVriP_AH-1" target="BUvVmMQozZYyvZz72ATM-14" edge="1">
          <mxGeometry width="50" height="50" relative="1" as="geometry">
            <mxPoint x="117.40999999999985" y="137.37556561085972" as="sourcePoint" />
            <mxPoint x="370" y="230.9502262443439" as="targetPoint" />
          </mxGeometry>
        </mxCell>
        <mxCell id="BUvVmMQozZYyvZz72ATM-67" value="" style="endArrow=oval;html=1;rounded=0;startArrow=oval;endFill=0;startFill=0;" parent="98Zc2acmLnp5LVriP_AH-1" edge="1">
          <mxGeometry width="50" height="50" relative="1" as="geometry">
            <mxPoint x="93" y="188" as="sourcePoint" />
            <mxPoint x="113" y="137" as="targetPoint" />
          </mxGeometry>
        </mxCell>
        <mxCell id="BUvVmMQozZYyvZz72ATM-69" value="" style="endArrow=none;html=1;rounded=0;exitX=0.5;exitY=0;exitDx=0;exitDy=0;entryX=0;entryY=1;entryDx=0;entryDy=0;" parent="98Zc2acmLnp5LVriP_AH-1" source="BUvVmMQozZYyvZz72ATM-15" edge="1">
          <mxGeometry width="50" height="50" relative="1" as="geometry">
            <mxPoint x="90" y="191.13122171945702" as="sourcePoint" />
            <mxPoint x="90.87867965644045" y="190.2565179890638" as="targetPoint" />
          </mxGeometry>
        </mxCell>
        <mxCell id="BUvVmMQozZYyvZz72ATM-70" value="" style="endArrow=none;html=1;rounded=0;entryX=0.5;entryY=0;entryDx=0;entryDy=0;exitX=0.25;exitY=1.025;exitDx=0;exitDy=0;exitPerimeter=0;endFill=0;startArrow=classic;startFill=1;" parent="98Zc2acmLnp5LVriP_AH-1" edge="1">
          <mxGeometry width="50" height="50" relative="1" as="geometry">
            <mxPoint x="82" y="230.9502262443439" as="sourcePoint" />
            <mxPoint x="62" y="279.72850678733033" as="targetPoint" />
          </mxGeometry>
        </mxCell>
        <mxCell id="BUvVmMQozZYyvZz72ATM-71" value="" style="endArrow=none;html=1;rounded=0;entryX=1;entryY=1;entryDx=0;entryDy=0;exitX=0;exitY=0;exitDx=0;exitDy=0;startArrow=classic;startFill=1;endFill=0;" parent="98Zc2acmLnp5LVriP_AH-1" source="BUvVmMQozZYyvZz72ATM-15" target="BUvVmMQozZYyvZz72ATM-16" edge="1">
          <mxGeometry width="50" height="50" relative="1" as="geometry">
            <mxPoint x="320" y="280.7239819004525" as="sourcePoint" />
            <mxPoint x="370" y="230.9502262443439" as="targetPoint" />
          </mxGeometry>
        </mxCell>
        <mxCell id="BUvVmMQozZYyvZz72ATM-72" value="" style="endArrow=classic;html=1;rounded=0;exitX=-0.025;exitY=0.7;exitDx=0;exitDy=0;exitPerimeter=0;entryX=1;entryY=0;entryDx=0;entryDy=0;startArrow=none;startFill=0;endFill=1;" parent="98Zc2acmLnp5LVriP_AH-1" target="BUvVmMQozZYyvZz72ATM-16" edge="1">
          <mxGeometry width="50" height="50" relative="1" as="geometry">
            <mxPoint x="110" y="126.42533936651584" as="sourcePoint" />
            <mxPoint x="40" y="151.31221719457014" as="targetPoint" />
          </mxGeometry>
        </mxCell>
        <mxCell id="BUvVmMQozZYyvZz72ATM-36" value="" style="endArrow=oval;html=1;rounded=0;startArrow=oval;startFill=0;endFill=0;endSize=6;startSize=6;" parent="98Zc2acmLnp5LVriP_AH-1" edge="1">
          <mxGeometry width="50" height="50" relative="1" as="geometry">
            <mxPoint x="199" y="327" as="sourcePoint" />
            <mxPoint x="199" y="244" as="targetPoint" />
          </mxGeometry>
        </mxCell>
        <mxCell id="BUvVmMQozZYyvZz72ATM-73" value="" style="endArrow=classic;html=1;rounded=0;entryX=0;entryY=1;entryDx=0;entryDy=0;exitX=1;exitY=0;exitDx=0;exitDy=0;" parent="98Zc2acmLnp5LVriP_AH-1" source="BUvVmMQozZYyvZz72ATM-14" target="BUvVmMQozZYyvZz72ATM-4" edge="1">
          <mxGeometry width="50" height="50" relative="1" as="geometry">
            <mxPoint x="320" y="280.7239819004525" as="sourcePoint" />
            <mxPoint x="370" y="230.9502262443439" as="targetPoint" />
          </mxGeometry>
        </mxCell>
        <mxCell id="2G2x_aGhVd37wPmZv7Ah-2" value="" style="ellipse;whiteSpace=wrap;html=1;" parent="98Zc2acmLnp5LVriP_AH-1" vertex="1">
          <mxGeometry x="267" y="363.34841628959276" width="6" height="5.972850678733032" as="geometry" />
        </mxCell>
        <mxCell id="2G2x_aGhVd37wPmZv7Ah-3" value="" style="ellipse;whiteSpace=wrap;html=1;" parent="98Zc2acmLnp5LVriP_AH-1" vertex="1">
          <mxGeometry x="221" y="159.2760180995475" width="6" height="5.972850678733032" as="geometry" />
        </mxCell>
        <mxCell id="2G2x_aGhVd37wPmZv7Ah-7" value="" style="endArrow=oval;html=1;rounded=0;entryX=0;entryY=0.3;entryDx=0;entryDy=0;endFill=0;startArrow=oval;startFill=0;entryPerimeter=0;" parent="98Zc2acmLnp5LVriP_AH-1" edge="1">
          <mxGeometry width="50" height="50" relative="1" as="geometry">
            <mxPoint x="341" y="290" as="sourcePoint" />
            <mxPoint x="361" y="298.62443438914033" as="targetPoint" />
          </mxGeometry>
        </mxCell>
        <mxCell id="F_XFJWDhxr5mrT7hzcer-3" value="" style="ellipse;whiteSpace=wrap;html=1;" parent="98Zc2acmLnp5LVriP_AH-1" vertex="1">
          <mxGeometry x="143" y="135.3846153846154" width="6" height="5.972850678733032" as="geometry" />
        </mxCell>
        <mxCell id="98Zc2acmLnp5LVriP_AH-2" value="" style="group" parent="1" vertex="1" connectable="0">
          <mxGeometry x="959.9999999999999" width="410" height="455" as="geometry" />
        </mxCell>
        <mxCell id="BUvVmMQozZYyvZz72ATM-226" value="&lt;font size=&quot;1&quot; face=&quot;Times New Roman&quot; style=&quot;&quot;&gt;&lt;b style=&quot;font-size: 22px;&quot;&gt;(c)&lt;/b&gt;&lt;/font&gt;" style="text;html=1;align=center;verticalAlign=middle;resizable=0;points=[];autosize=1;strokeColor=none;fillColor=none;" parent="98Zc2acmLnp5LVriP_AH-2" vertex="1">
          <mxGeometry x="-5" width="50" height="40" as="geometry" />
        </mxCell>
        <mxCell id="BUvVmMQozZYyvZz72ATM-140" value="hyp" style="ellipse;whiteSpace=wrap;html=1;aspect=fixed;" parent="98Zc2acmLnp5LVriP_AH-2" vertex="1">
          <mxGeometry x="270" y="45" width="40" height="40" as="geometry" />
        </mxCell>
        <mxCell id="BUvVmMQozZYyvZz72ATM-141" value="ftg" style="ellipse;whiteSpace=wrap;html=1;aspect=fixed;" parent="98Zc2acmLnp5LVriP_AH-2" vertex="1">
          <mxGeometry x="194.41000000000008" y="135" width="40" height="40" as="geometry" />
        </mxCell>
        <mxCell id="BUvVmMQozZYyvZz72ATM-142" value="rtr" style="ellipse;whiteSpace=wrap;html=1;aspect=fixed;" parent="98Zc2acmLnp5LVriP_AH-2" vertex="1">
          <mxGeometry x="154.40999999999985" y="65" width="40" height="40" as="geometry" />
        </mxCell>
        <mxCell id="BUvVmMQozZYyvZz72ATM-143" value="anh" style="ellipse;whiteSpace=wrap;html=1;aspect=fixed;" parent="98Zc2acmLnp5LVriP_AH-2" vertex="1">
          <mxGeometry x="180" y="215" width="40" height="40" as="geometry" />
        </mxCell>
        <mxCell id="BUvVmMQozZYyvZz72ATM-144" value="inc" style="ellipse;whiteSpace=wrap;html=1;aspect=fixed;" parent="98Zc2acmLnp5LVriP_AH-2" vertex="1">
          <mxGeometry x="330" y="145" width="40" height="40" as="geometry" />
        </mxCell>
        <mxCell id="BUvVmMQozZYyvZz72ATM-145" value="wghtg" style="ellipse;whiteSpace=wrap;html=1;aspect=fixed;" parent="98Zc2acmLnp5LVriP_AH-2" vertex="1">
          <mxGeometry x="370" y="195" width="40" height="40" as="geometry" />
        </mxCell>
        <mxCell id="BUvVmMQozZYyvZz72ATM-146" value="dcp" style="ellipse;whiteSpace=wrap;html=1;aspect=fixed;" parent="98Zc2acmLnp5LVriP_AH-2" vertex="1">
          <mxGeometry x="300" y="275" width="40" height="40" as="geometry" />
        </mxCell>
        <mxCell id="BUvVmMQozZYyvZz72ATM-147" value="wghtl" style="ellipse;whiteSpace=wrap;html=1;aspect=fixed;" parent="98Zc2acmLnp5LVriP_AH-2" vertex="1">
          <mxGeometry x="360" y="305" width="40" height="40" as="geometry" />
        </mxCell>
        <mxCell id="BUvVmMQozZYyvZz72ATM-148" value="lat" style="ellipse;whiteSpace=wrap;html=1;aspect=fixed;" parent="98Zc2acmLnp5LVriP_AH-2" vertex="1">
          <mxGeometry x="180" y="345" width="40" height="40" as="geometry" />
        </mxCell>
        <mxCell id="BUvVmMQozZYyvZz72ATM-149" value="ons" style="ellipse;whiteSpace=wrap;html=1;aspect=fixed;" parent="98Zc2acmLnp5LVriP_AH-2" vertex="1">
          <mxGeometry x="250" y="385" width="40" height="40" as="geometry" />
        </mxCell>
        <mxCell id="BUvVmMQozZYyvZz72ATM-150" value="mdd" style="ellipse;whiteSpace=wrap;html=1;aspect=fixed;" parent="98Zc2acmLnp5LVriP_AH-2" vertex="1">
          <mxGeometry x="150" y="415" width="40" height="40" as="geometry" />
        </mxCell>
        <mxCell id="BUvVmMQozZYyvZz72ATM-151" value="sad" style="ellipse;whiteSpace=wrap;html=1;aspect=fixed;" parent="98Zc2acmLnp5LVriP_AH-2" vertex="1">
          <mxGeometry x="114.41000000000008" y="255" width="40" height="40" as="geometry" />
        </mxCell>
        <mxCell id="BUvVmMQozZYyvZz72ATM-152" value="cnc" style="ellipse;whiteSpace=wrap;html=1;aspect=fixed;" parent="98Zc2acmLnp5LVriP_AH-2" vertex="1">
          <mxGeometry x="110" y="115" width="40" height="40" as="geometry" />
        </mxCell>
        <mxCell id="BUvVmMQozZYyvZz72ATM-153" value="glt" style="ellipse;whiteSpace=wrap;html=1;aspect=fixed;" parent="98Zc2acmLnp5LVriP_AH-2" vertex="1">
          <mxGeometry x="70" y="205" width="40" height="40" as="geometry" />
        </mxCell>
        <mxCell id="BUvVmMQozZYyvZz72ATM-154" value="agt" style="ellipse;whiteSpace=wrap;html=1;aspect=fixed;" parent="98Zc2acmLnp5LVriP_AH-2" vertex="1">
          <mxGeometry y="155" width="40" height="40" as="geometry" />
        </mxCell>
        <mxCell id="BUvVmMQozZYyvZz72ATM-155" value="scd" style="ellipse;whiteSpace=wrap;html=1;aspect=fixed;" parent="98Zc2acmLnp5LVriP_AH-2" vertex="1">
          <mxGeometry x="40" y="295" width="40" height="40" as="geometry" />
        </mxCell>
        <mxCell id="BUvVmMQozZYyvZz72ATM-156" value="" style="endArrow=none;html=1;rounded=0;exitX=0;exitY=0;exitDx=0;exitDy=0;entryX=1;entryY=0.5;entryDx=0;entryDy=0;endFill=0;" parent="98Zc2acmLnp5LVriP_AH-2" source="BUvVmMQozZYyvZz72ATM-149" target="BUvVmMQozZYyvZz72ATM-148" edge="1">
          <mxGeometry width="50" height="50" relative="1" as="geometry">
            <mxPoint x="340" y="345" as="sourcePoint" />
            <mxPoint x="390" y="295" as="targetPoint" />
          </mxGeometry>
        </mxCell>
        <mxCell id="BUvVmMQozZYyvZz72ATM-157" value="" style="endArrow=none;html=1;rounded=0;exitX=0.5;exitY=0;exitDx=0;exitDy=0;entryX=0;entryY=1;entryDx=0;entryDy=0;endFill=0;" parent="98Zc2acmLnp5LVriP_AH-2" source="BUvVmMQozZYyvZz72ATM-150" target="BUvVmMQozZYyvZz72ATM-148" edge="1">
          <mxGeometry width="50" height="50" relative="1" as="geometry">
            <mxPoint x="340" y="345" as="sourcePoint" />
            <mxPoint x="390" y="295" as="targetPoint" />
          </mxGeometry>
        </mxCell>
        <mxCell id="BUvVmMQozZYyvZz72ATM-158" value="" style="endArrow=none;html=1;rounded=0;exitX=0;exitY=1;exitDx=0;exitDy=0;entryX=1;entryY=0.5;entryDx=0;entryDy=0;endFill=0;" parent="98Zc2acmLnp5LVriP_AH-2" source="BUvVmMQozZYyvZz72ATM-149" target="BUvVmMQozZYyvZz72ATM-150" edge="1">
          <mxGeometry width="50" height="50" relative="1" as="geometry">
            <mxPoint x="340" y="345" as="sourcePoint" />
            <mxPoint x="390" y="295" as="targetPoint" />
          </mxGeometry>
        </mxCell>
        <mxCell id="BUvVmMQozZYyvZz72ATM-160" value="" style="endArrow=oval;html=1;rounded=0;startArrow=oval;startFill=0;endFill=0;" parent="98Zc2acmLnp5LVriP_AH-2" edge="1">
          <mxGeometry width="50" height="50" relative="1" as="geometry">
            <mxPoint x="338" y="309" as="sourcePoint" />
            <mxPoint x="358" y="320" as="targetPoint" />
          </mxGeometry>
        </mxCell>
        <mxCell id="BUvVmMQozZYyvZz72ATM-161" value="" style="endArrow=oval;html=1;rounded=0;exitX=0.5;exitY=1;exitDx=0;exitDy=0;startArrow=classic;startFill=1;endFill=0;" parent="98Zc2acmLnp5LVriP_AH-2" source="BUvVmMQozZYyvZz72ATM-145" edge="1">
          <mxGeometry width="50" height="50" relative="1" as="geometry">
            <mxPoint x="391" y="242" as="sourcePoint" />
            <mxPoint x="381" y="302" as="targetPoint" />
          </mxGeometry>
        </mxCell>
        <mxCell id="BUvVmMQozZYyvZz72ATM-164" value="" style="endArrow=classic;html=1;rounded=0;startArrow=none;startFill=0;endFill=1;exitX=0.675;exitY=0.975;exitDx=0;exitDy=0;entryX=0;entryY=0;entryDx=0;entryDy=0;exitPerimeter=0;" parent="98Zc2acmLnp5LVriP_AH-2" edge="1">
          <mxGeometry width="50" height="50" relative="1" as="geometry">
            <mxPoint x="362" y="181" as="sourcePoint" />
            <mxPoint x="380.85786437626894" y="197.85786437626894" as="targetPoint" />
          </mxGeometry>
        </mxCell>
        <mxCell id="BUvVmMQozZYyvZz72ATM-168" value="" style="ellipse;whiteSpace=wrap;html=1;" parent="98Zc2acmLnp5LVriP_AH-2" vertex="1">
          <mxGeometry x="181" y="378" width="6" height="6" as="geometry" />
        </mxCell>
        <mxCell id="BUvVmMQozZYyvZz72ATM-169" value="" style="ellipse;whiteSpace=wrap;html=1;" parent="98Zc2acmLnp5LVriP_AH-2" vertex="1">
          <mxGeometry x="362" y="180" width="6" height="6" as="geometry" />
        </mxCell>
        <mxCell id="BUvVmMQozZYyvZz72ATM-171" value="" style="endArrow=none;html=1;rounded=0;exitX=1;exitY=0.5;exitDx=0;exitDy=0;entryX=0;entryY=1;entryDx=0;entryDy=0;startArrow=none;" parent="98Zc2acmLnp5LVriP_AH-2" source="BUvVmMQozZYyvZz72ATM-173" target="BUvVmMQozZYyvZz72ATM-143" edge="1">
          <mxGeometry width="50" height="50" relative="1" as="geometry">
            <mxPoint x="320" y="315" as="sourcePoint" />
            <mxPoint x="370" y="265" as="targetPoint" />
          </mxGeometry>
        </mxCell>
        <mxCell id="BUvVmMQozZYyvZz72ATM-172" value="" style="endArrow=none;html=1;rounded=0;entryX=0;entryY=1;entryDx=0;entryDy=0;" parent="98Zc2acmLnp5LVriP_AH-2" target="BUvVmMQozZYyvZz72ATM-143" edge="1">
          <mxGeometry width="50" height="50" relative="1" as="geometry">
            <mxPoint x="158" y="267" as="sourcePoint" />
            <mxPoint x="177.87867965644023" y="254.12132034355977" as="targetPoint" />
          </mxGeometry>
        </mxCell>
        <mxCell id="BUvVmMQozZYyvZz72ATM-173" value="" style="ellipse;whiteSpace=wrap;html=1;" parent="98Zc2acmLnp5LVriP_AH-2" vertex="1">
          <mxGeometry x="181" y="248" width="6" height="6" as="geometry" />
        </mxCell>
        <mxCell id="BUvVmMQozZYyvZz72ATM-174" value="" style="ellipse;whiteSpace=wrap;html=1;" parent="98Zc2acmLnp5LVriP_AH-2" vertex="1">
          <mxGeometry x="153.40999999999985" y="265" width="6" height="6" as="geometry" />
        </mxCell>
        <mxCell id="BUvVmMQozZYyvZz72ATM-175" value="" style="endArrow=none;html=1;rounded=0;entryX=1;entryY=1;entryDx=0;entryDy=0;exitX=0;exitY=0;exitDx=0;exitDy=0;startArrow=none;" parent="98Zc2acmLnp5LVriP_AH-2" target="BUvVmMQozZYyvZz72ATM-152" edge="1">
          <mxGeometry width="50" height="50" relative="1" as="geometry">
            <mxPoint x="137.87867965644023" y="152.87867965644023" as="sourcePoint" />
            <mxPoint x="370" y="265" as="targetPoint" />
          </mxGeometry>
        </mxCell>
        <mxCell id="BUvVmMQozZYyvZz72ATM-176" value="" style="endArrow=none;html=1;rounded=0;entryX=1;entryY=1;entryDx=0;entryDy=0;exitX=0;exitY=0;exitDx=0;exitDy=0;" parent="98Zc2acmLnp5LVriP_AH-2" source="BUvVmMQozZYyvZz72ATM-143" edge="1">
          <mxGeometry width="50" height="50" relative="1" as="geometry">
            <mxPoint x="186" y="221" as="sourcePoint" />
            <mxPoint x="189.12132034355977" y="218.12132034355977" as="targetPoint" />
          </mxGeometry>
        </mxCell>
        <mxCell id="BUvVmMQozZYyvZz72ATM-180" value="" style="endArrow=classic;html=1;rounded=0;entryX=0.34;entryY=0.975;entryDx=0;entryDy=0;exitX=1;exitY=0;exitDx=0;exitDy=0;entryPerimeter=0;" parent="98Zc2acmLnp5LVriP_AH-2" edge="1">
          <mxGeometry width="50" height="50" relative="1" as="geometry">
            <mxPoint x="204.12132034359593" y="209.87867965640442" as="sourcePoint" />
            <mxPoint x="210.00999999999976" y="173.0000000000001" as="targetPoint" />
          </mxGeometry>
        </mxCell>
        <mxCell id="BUvVmMQozZYyvZz72ATM-181" value="" style="endArrow=classic;html=1;rounded=0;exitX=0;exitY=1;exitDx=0;exitDy=0;entryX=1;entryY=0;entryDx=0;entryDy=0;" parent="98Zc2acmLnp5LVriP_AH-2" source="BUvVmMQozZYyvZz72ATM-140" target="BUvVmMQozZYyvZz72ATM-141" edge="1">
          <mxGeometry width="50" height="50" relative="1" as="geometry">
            <mxPoint x="320" y="315" as="sourcePoint" />
            <mxPoint x="370" y="265" as="targetPoint" />
          </mxGeometry>
        </mxCell>
        <mxCell id="BUvVmMQozZYyvZz72ATM-182" value="" style="endArrow=classic;html=1;rounded=0;exitX=0.975;exitY=0.675;exitDx=0;exitDy=0;exitPerimeter=0;entryX=0;entryY=0.5;entryDx=0;entryDy=0;endFill=1;startArrow=classic;startFill=1;" parent="98Zc2acmLnp5LVriP_AH-2" source="BUvVmMQozZYyvZz72ATM-152" target="BUvVmMQozZYyvZz72ATM-141" edge="1">
          <mxGeometry width="50" height="50" relative="1" as="geometry">
            <mxPoint x="320" y="315" as="sourcePoint" />
            <mxPoint x="370" y="265" as="targetPoint" />
          </mxGeometry>
        </mxCell>
        <mxCell id="BUvVmMQozZYyvZz72ATM-183" value="" style="endArrow=classic;html=1;rounded=0;entryX=0;entryY=0;entryDx=0;entryDy=0;exitX=1;exitY=1;exitDx=0;exitDy=0;" parent="98Zc2acmLnp5LVriP_AH-2" source="BUvVmMQozZYyvZz72ATM-142" edge="1">
          <mxGeometry width="50" height="50" relative="1" as="geometry">
            <mxPoint x="188" y="110" as="sourcePoint" />
            <mxPoint x="208.26786437626902" y="135.85786437626894" as="targetPoint" />
          </mxGeometry>
        </mxCell>
        <mxCell id="BUvVmMQozZYyvZz72ATM-184" value="" style="endArrow=none;html=1;rounded=0;exitX=0;exitY=1;exitDx=0;exitDy=0;entryX=1;entryY=0.5;entryDx=0;entryDy=0;endFill=0;" parent="98Zc2acmLnp5LVriP_AH-2" source="BUvVmMQozZYyvZz72ATM-151" target="BUvVmMQozZYyvZz72ATM-155" edge="1">
          <mxGeometry width="50" height="50" relative="1" as="geometry">
            <mxPoint x="320" y="295" as="sourcePoint" />
            <mxPoint x="370" y="245" as="targetPoint" />
          </mxGeometry>
        </mxCell>
        <mxCell id="BUvVmMQozZYyvZz72ATM-185" value="" style="endArrow=none;html=1;rounded=0;entryX=1;entryY=1;entryDx=0;entryDy=0;exitX=0;exitY=0;exitDx=0;exitDy=0;startArrow=none;" parent="98Zc2acmLnp5LVriP_AH-2" target="BUvVmMQozZYyvZz72ATM-153" edge="1">
          <mxGeometry width="50" height="50" relative="1" as="geometry">
            <mxPoint x="101.87867965644023" y="240.87867965644023" as="sourcePoint" />
            <mxPoint x="370" y="245" as="targetPoint" />
          </mxGeometry>
        </mxCell>
        <mxCell id="BUvVmMQozZYyvZz72ATM-186" value="" style="endArrow=none;html=1;rounded=0;entryX=1;entryY=1;entryDx=0;entryDy=0;exitX=0;exitY=0;exitDx=0;exitDy=0;" parent="98Zc2acmLnp5LVriP_AH-2" source="BUvVmMQozZYyvZz72ATM-151" target="BUvVmMQozZYyvZz72ATM-187" edge="1">
          <mxGeometry width="50" height="50" relative="1" as="geometry">
            <mxPoint x="120" y="261" as="sourcePoint" />
            <mxPoint x="104" y="239" as="targetPoint" />
          </mxGeometry>
        </mxCell>
        <mxCell id="BUvVmMQozZYyvZz72ATM-187" value="" style="ellipse;whiteSpace=wrap;html=1;" parent="98Zc2acmLnp5LVriP_AH-2" vertex="1">
          <mxGeometry x="114.40999999999985" y="255" width="6" height="6" as="geometry" />
        </mxCell>
        <mxCell id="BUvVmMQozZYyvZz72ATM-188" value="" style="endArrow=classic;html=1;rounded=0;entryX=1;entryY=1;entryDx=0;entryDy=0;exitX=0;exitY=0;exitDx=0;exitDy=0;startArrow=none;endFill=1;" parent="98Zc2acmLnp5LVriP_AH-2" source="BUvVmMQozZYyvZz72ATM-187" target="BUvVmMQozZYyvZz72ATM-153" edge="1">
          <mxGeometry width="50" height="50" relative="1" as="geometry">
            <mxPoint x="115" y="256" as="sourcePoint" />
            <mxPoint x="106.12132034355977" y="245.12132034355977" as="targetPoint" />
          </mxGeometry>
        </mxCell>
        <mxCell id="BUvVmMQozZYyvZz72ATM-190" value="" style="endArrow=none;html=1;rounded=0;exitX=0.5;exitY=0;exitDx=0;exitDy=0;entryX=0;entryY=1;entryDx=0;entryDy=0;startArrow=none;" parent="98Zc2acmLnp5LVriP_AH-2" target="BUvVmMQozZYyvZz72ATM-152" edge="1">
          <mxGeometry width="50" height="50" relative="1" as="geometry">
            <mxPoint x="117.40999999999985" y="151" as="sourcePoint" />
            <mxPoint x="370" y="245" as="targetPoint" />
          </mxGeometry>
        </mxCell>
        <mxCell id="BUvVmMQozZYyvZz72ATM-193" value="" style="endArrow=none;html=1;rounded=0;exitX=0.5;exitY=0;exitDx=0;exitDy=0;entryX=0;entryY=1;entryDx=0;entryDy=0;" parent="98Zc2acmLnp5LVriP_AH-2" source="BUvVmMQozZYyvZz72ATM-153" edge="1">
          <mxGeometry width="50" height="50" relative="1" as="geometry">
            <mxPoint x="90" y="205" as="sourcePoint" />
            <mxPoint x="90.87867965644045" y="204.12132034355955" as="targetPoint" />
          </mxGeometry>
        </mxCell>
        <mxCell id="BUvVmMQozZYyvZz72ATM-195" value="" style="endArrow=none;html=1;rounded=0;entryX=0.5;entryY=0;entryDx=0;entryDy=0;exitX=0;exitY=1;exitDx=0;exitDy=0;endFill=0;startArrow=classic;startFill=1;" parent="98Zc2acmLnp5LVriP_AH-2" source="BUvVmMQozZYyvZz72ATM-153" edge="1">
          <mxGeometry width="50" height="50" relative="1" as="geometry">
            <mxPoint x="82" y="245" as="sourcePoint" />
            <mxPoint x="62" y="294" as="targetPoint" />
          </mxGeometry>
        </mxCell>
        <mxCell id="BUvVmMQozZYyvZz72ATM-196" value="" style="endArrow=oval;html=1;rounded=0;exitX=0;exitY=0;exitDx=0;exitDy=0;startArrow=classic;startFill=1;endFill=0;" parent="98Zc2acmLnp5LVriP_AH-2" source="BUvVmMQozZYyvZz72ATM-153" edge="1">
          <mxGeometry width="50" height="50" relative="1" as="geometry">
            <mxPoint x="72.85786437626894" y="211.85786437626882" as="sourcePoint" />
            <mxPoint x="37" y="191" as="targetPoint" />
          </mxGeometry>
        </mxCell>
        <mxCell id="BUvVmMQozZYyvZz72ATM-197" value="" style="endArrow=oval;html=1;rounded=0;exitX=-0.025;exitY=0.7;exitDx=0;exitDy=0;exitPerimeter=0;startArrow=classic;startFill=1;endFill=0;" parent="98Zc2acmLnp5LVriP_AH-2" edge="1">
          <mxGeometry width="50" height="50" relative="1" as="geometry">
            <mxPoint x="111" y="140" as="sourcePoint" />
            <mxPoint x="38" y="160" as="targetPoint" />
          </mxGeometry>
        </mxCell>
        <mxCell id="BUvVmMQozZYyvZz72ATM-199" value="" style="endArrow=none;html=1;rounded=0;entryX=0;entryY=1;entryDx=0;entryDy=0;exitX=1;exitY=0;exitDx=0;exitDy=0;endFill=0;startArrow=classic;startFill=1;" parent="98Zc2acmLnp5LVriP_AH-2" source="BUvVmMQozZYyvZz72ATM-152" target="BUvVmMQozZYyvZz72ATM-142" edge="1">
          <mxGeometry width="50" height="50" relative="1" as="geometry">
            <mxPoint x="320" y="295" as="sourcePoint" />
            <mxPoint x="370" y="245" as="targetPoint" />
          </mxGeometry>
        </mxCell>
        <mxCell id="BUvVmMQozZYyvZz72ATM-201" value="" style="ellipse;whiteSpace=wrap;html=1;" parent="98Zc2acmLnp5LVriP_AH-2" vertex="1">
          <mxGeometry x="168" y="409" width="6" height="6" as="geometry" />
        </mxCell>
        <mxCell id="BUvVmMQozZYyvZz72ATM-202" value="" style="ellipse;whiteSpace=wrap;html=1;" parent="98Zc2acmLnp5LVriP_AH-2" vertex="1">
          <mxGeometry x="190" y="431" width="6" height="6" as="geometry" />
        </mxCell>
        <mxCell id="BUvVmMQozZYyvZz72ATM-203" value="" style="ellipse;whiteSpace=wrap;html=1;" parent="98Zc2acmLnp5LVriP_AH-2" vertex="1">
          <mxGeometry x="250" y="417" width="6" height="6" as="geometry" />
        </mxCell>
        <mxCell id="BUvVmMQozZYyvZz72ATM-204" value="" style="ellipse;whiteSpace=wrap;html=1;" parent="98Zc2acmLnp5LVriP_AH-2" vertex="1">
          <mxGeometry x="250" y="386" width="6" height="6" as="geometry" />
        </mxCell>
        <mxCell id="BUvVmMQozZYyvZz72ATM-205" value="" style="ellipse;whiteSpace=wrap;html=1;" parent="98Zc2acmLnp5LVriP_AH-2" vertex="1">
          <mxGeometry x="220" y="363" width="6" height="6" as="geometry" />
        </mxCell>
        <mxCell id="BUvVmMQozZYyvZz72ATM-207" value="" style="ellipse;whiteSpace=wrap;html=1;" parent="98Zc2acmLnp5LVriP_AH-2" vertex="1">
          <mxGeometry x="154.40999999999985" y="98" width="6" height="6" as="geometry" />
        </mxCell>
        <mxCell id="BUvVmMQozZYyvZz72ATM-208" value="" style="ellipse;whiteSpace=wrap;html=1;" parent="98Zc2acmLnp5LVriP_AH-2" vertex="1">
          <mxGeometry x="187.40999999999985" y="99" width="6" height="6" as="geometry" />
        </mxCell>
        <mxCell id="BUvVmMQozZYyvZz72ATM-209" value="" style="ellipse;whiteSpace=wrap;html=1;" parent="98Zc2acmLnp5LVriP_AH-2" vertex="1">
          <mxGeometry x="271" y="78" width="6" height="6" as="geometry" />
        </mxCell>
        <mxCell id="BUvVmMQozZYyvZz72ATM-210" value="" style="ellipse;whiteSpace=wrap;html=1;" parent="98Zc2acmLnp5LVriP_AH-2" vertex="1">
          <mxGeometry x="200" y="210" width="6" height="6" as="geometry" />
        </mxCell>
        <mxCell id="BUvVmMQozZYyvZz72ATM-166" value="" style="ellipse;whiteSpace=wrap;html=1;" parent="98Zc2acmLnp5LVriP_AH-2" vertex="1">
          <mxGeometry x="59" y="289" width="6" height="6" as="geometry" />
        </mxCell>
        <mxCell id="BUvVmMQozZYyvZz72ATM-214" value="" style="ellipse;whiteSpace=wrap;html=1;" parent="98Zc2acmLnp5LVriP_AH-2" vertex="1">
          <mxGeometry x="80" y="311" width="6" height="6" as="geometry" />
        </mxCell>
        <mxCell id="BUvVmMQozZYyvZz72ATM-215" value="" style="ellipse;whiteSpace=wrap;html=1;" parent="98Zc2acmLnp5LVriP_AH-2" vertex="1">
          <mxGeometry x="114.40999999999985" y="287" width="6" height="6" as="geometry" />
        </mxCell>
      </root>
    </mxGraphModel>
  </diagram>
</mxfile>
